<svg xmlns="http://www.w3.org/2000/svg" viewBox="0 0 79.19 79.19"><defs><style>.cls-1{fill:#e85596;}.cls-2{fill:#fff;}</style></defs><title>Ativo 14</title><g id="Camada_2" data-name="Camada 2"><g id="Capa_1" data-name="Capa 1"><path class="cls-1" d="M0,39.6A39.6,39.6,0,1,0,39.59,0,39.6,39.6,0,0,0,0,39.6Z"/><path class="cls-2" d="M43.79,37.56a27.36,27.36,0,0,1-.38-23.07A25.36,25.36,0,0,0,17,28,27.41,27.41,0,0,1,34.65,64.51a25.37,25.37,0,0,0,27-12.34A27.39,27.39,0,0,1,43.79,37.56Z"/><path class="cls-2" d="M47.48,15.46A23.31,23.31,0,0,0,63.42,48.37,25.35,25.35,0,0,0,47.48,15.46Z"/><path class="cls-2" d="M30.68,63.37A23.31,23.31,0,0,0,15.41,31.85,25.36,25.36,0,0,0,30.68,63.37Z"/></g></g></svg>