<svg xmlns="http://www.w3.org/2000/svg" viewBox="0 0 254.27 86.11"><defs><style>.cls-1{fill:#8c62f4;}.cls-2{fill:#fe5b9e;}.cls-3{font-size:35px;font-family:BubbleGum, BubbleGum;}.cls-4{letter-spacing:0em;}</style></defs><title>Ativo 4</title><g id="Camada_2" data-name="Camada 2"><g id="OBJECTS"><path class="cls-1" d="M10.81,45C4.72,44.8-.12,47.88,0,51.85s5.16,7.32,11.25,7.49,10.93-2.92,10.81-6.89S16.9,45.13,10.81,45Z"/><path class="cls-1" d="M52.22,8.58c-3.88-.86-7.81,3.32-8.78,9.34s1.39,11.59,5.27,12.45S56.52,27,57.49,21,56.1,9.44,52.22,8.58Z"/><path class="cls-1" d="M6.94,27.53c-2.08,3.36.32,8.89,5.37,12.36s10.82,3.55,12.9.19-.31-8.88-5.36-12.35S9,24.18,6.94,27.53Z"/><path class="cls-1" d="M27,10.88c-3.68,1.43-4.67,7.12-2.2,12.73s7.46,9,11.14,7.56,4.67-7.12,2.2-12.72S30.72,9.46,27,10.88Z"/><path class="cls-2" d="M81.31,13.66c-3.67-2.88-8-3.19-9.79-.69s-.17,6.85,3.5,9.73,8,3.2,9.78.7S85,16.55,81.31,13.66Z"/><path class="cls-2" d="M123.36,10.21c-2-2.3-6.31-1.52-9.65,1.73s-4.44,7.76-2.45,10,6.32,1.53,9.66-1.73S125.35,12.51,123.36,10.21Z"/><path class="cls-2" d="M86.89,1.19c-2.81,1.11-3.86,5.6-2.34,10s5,7.12,7.84,6,3.86-5.6,2.34-10S89.7.08,86.89,1.19Z"/><path class="cls-2" d="M106.84.13c-2.92-.81-6.13,2.24-7.17,6.81s.48,8.93,3.4,9.73,6.12-2.24,7.16-6.81S109.75.94,106.84.13Z"/><path class="cls-1" d="M55.14,35.65c-7.84-2.78-15.79-2.08-21,1.28h0l-.5.34-.32.23-.32.24-.34.27-.33.29-.3.27-.28.27-.43.43,0,0C27,43.85,24.78,51.53,26.05,59.75c1.89,12.19,10.63,21,19.5,19.57,5.46-.85,7.18-6.83,12.17-11s11.18-4.71,13-9.92C73.75,50,66.76,39.77,55.14,35.65Zm1.31,15.72L53.58,63.24l-12.2.62A7.21,7.21,0,1,1,42.85,50.3a7.21,7.21,0,1,1,13.6,1.07Z"/><path class="cls-2" d="M112.81,28.18c-3.55-5.29-8.76-8.49-13.52-8.83h0l-.46,0h-.94l-.34,0-.3,0-.3,0-.46.07h0c-4.7.84-9.53,4.57-12.5,10.2-4.4,8.35-3,17.72,3,20.93,3.74,2,7.52-.92,12.48-1.19s9,2.21,12.53-.14C117.7,45.47,118.07,36,112.81,28.18Zm-5.49,6.16a5,5,0,0,1-2.43,4.54l-6.38,5.38-7-4.58a4.93,4.93,0,1,1,6.29-6.88,4.93,4.93,0,0,1,9.5,1.54Z"/><text class="cls-3" transform="translate(109.53 82.09)">Vi<tspan class="cls-1" x="35.38" y="0">da</tspan><tspan class="cls-4" x="77.34" y="0" xml:space="preserve"> P</tspan><tspan class="cls-2" x="106.58" y="0">ET</tspan></text></g></g></svg>