<svg xmlns="http://www.w3.org/2000/svg" viewBox="0 0 79.19 79.19"><defs><style>.cls-1{fill:#815ea7;}.cls-2{fill:#fff;}</style></defs><title>Ativo 2</title><g id="Camada_2" data-name="Camada 2"><g id="Capa_1" data-name="Capa 1"><path class="cls-1" d="M79.19,39.6A39.6,39.6,0,1,1,39.6,0,39.6,39.6,0,0,1,79.19,39.6Z"/><path class="cls-2" d="M63.16,14.67a6,6,0,0,0-8.33-1.27c-2.65,1.95.88,4.44-.29,7.52C53.45,23.81,23,46.16,20,46.34c-3.29.2-4.61-3.92-7.27-2a6,6,0,0,0-1.27,8.34c1.33,1.81,2.79,1.47,4.23,3.36s.62,3.23,2,5a6,6,0,0,0,8.33,1.27c2.66-2-.64-5.65,1.28-8.33,2.22-3.12,28.89-22.72,32.53-23.91,3.12-1,5.68,3.22,8.33,1.27a6,6,0,0,0,1.27-8.33c-1.33-1.81-2.86-1.42-4.23-3.36S64.49,16.48,63.16,14.67Z"/></g></g></svg>