<svg xmlns="http://www.w3.org/2000/svg" viewBox="0 0 79.19 79.19"><defs><style>.cls-1{fill:#815ea7;}.cls-2{fill:#fff;}</style></defs><title>Ativo 8</title><g id="Camada_2" data-name="Camada 2"><g id="Capa_1" data-name="Capa 1"><path class="cls-1" d="M0,39.59A39.6,39.6,0,1,0,39.6,0,39.6,39.6,0,0,0,0,39.59Z"/><polygon class="cls-2" points="51.61 41.63 31.48 22.6 30.07 24.09 44.98 38.18 38.4 45.14 23.5 31.05 22.09 32.54 42.22 51.57 55.48 54.7 51.61 41.63"/><polygon class="cls-2" points="60.04 59.83 46.75 47.27 47.57 46.4 60.87 58.96 65.64 64.36 60.04 59.83"/><path class="cls-2" d="M22.63,33.43a1.31,1.31,0,0,1-1.85,0h0a1.31,1.31,0,0,1-.12-1.85l9.53-10.09a1.32,1.32,0,0,1,1.86,0h0a1.31,1.31,0,0,1,.12,1.85Z"/><path class="cls-2" d="M15.77,25.51a1.24,1.24,0,0,1-1.72-.15h0a1.24,1.24,0,0,1-.25-1.72l8.06-8.53a1.25,1.25,0,0,1,1.73.16h0A1.25,1.25,0,0,1,23.84,17Z"/><rect class="cls-2" x="25.3" y="32.53" width="3.76" height="1.02" transform="translate(-15.51 30.14) rotate(-46.67)"/><rect class="cls-2" x="27.87" y="34.96" width="3.76" height="1.03" transform="translate(-16.46 32.71) rotate(-46.6)"/><rect class="cls-2" x="30.44" y="37.38" width="3.76" height="1.03" transform="translate(-17.42 35.34) rotate(-46.6)"/><rect class="cls-2" x="33" y="39.81" width="3.76" height="1.03" transform="translate(-18.38 37.96) rotate(-46.6)"/><rect class="cls-2" x="35.57" y="42.24" width="3.76" height="1.03" transform="translate(-19.35 40.73) rotate(-46.75)"/><rect class="cls-2" x="18.2" y="19.08" width="6.95" height="7.87" transform="translate(-9.94 22.96) rotate(-46.62)"/></g></g></svg>