<svg xmlns="http://www.w3.org/2000/svg" xmlns:xlink="http://www.w3.org/1999/xlink" viewBox="0 0 76.24 55.26"><defs><style>.cls-1,.cls-10,.cls-2,.cls-3,.cls-4,.cls-5,.cls-6,.cls-7,.cls-8,.cls-9{stroke:#000;stroke-miterlimit:10;stroke-width:0.75px;}.cls-1{fill:url(#Gradiente_sem_nome_17);}.cls-2{fill:url(#Gradiente_sem_nome_17-2);}.cls-3{fill:url(#Gradiente_sem_nome_17-3);}.cls-4{fill:url(#Gradiente_sem_nome_17-4);}.cls-5{fill:url(#Gradiente_sem_nome_17-5);}.cls-6{fill:url(#Gradiente_sem_nome_17-6);}.cls-7{fill:url(#Gradiente_sem_nome_17-7);}.cls-8{fill:url(#Gradiente_sem_nome_17-8);}.cls-9{fill:url(#Gradiente_sem_nome_17-9);}.cls-10{fill:url(#Gradiente_sem_nome_17-10);}</style><linearGradient id="Gradiente_sem_nome_17" x1="6.47" y1="23.77" x2="32.61" y2="23.77" gradientUnits="userSpaceOnUse"><stop offset="0" stop-color="#8960e9"/><stop offset="1" stop-color="#fa58a1"/></linearGradient><linearGradient id="Gradiente_sem_nome_17-2" x1="0.38" y1="15.68" x2="7.54" y2="15.68" xlink:href="#Gradiente_sem_nome_17"/><linearGradient id="Gradiente_sem_nome_17-3" x1="6.89" y1="9.01" x2="14.04" y2="9.01" xlink:href="#Gradiente_sem_nome_17"/><linearGradient id="Gradiente_sem_nome_17-4" x1="17.76" y1="5.96" x2="24.75" y2="5.96" xlink:href="#Gradiente_sem_nome_17"/><linearGradient id="Gradiente_sem_nome_17-5" x1="27.34" y1="10.84" x2="34.39" y2="10.84" xlink:href="#Gradiente_sem_nome_17"/><linearGradient id="Gradiente_sem_nome_17-6" x1="45.2" y1="47.41" x2="69.12" y2="47.41" xlink:href="#Gradiente_sem_nome_17"/><linearGradient id="Gradiente_sem_nome_17-7" x1="68.62" y1="39.82" x2="75.87" y2="39.82" xlink:href="#Gradiente_sem_nome_17"/><linearGradient id="Gradiente_sem_nome_17-8" x1="61.84" y1="30.03" x2="70.43" y2="30.03" xlink:href="#Gradiente_sem_nome_17"/><linearGradient id="Gradiente_sem_nome_17-9" x1="52.3" y1="28.3" x2="60.23" y2="28.3" xlink:href="#Gradiente_sem_nome_17"/><linearGradient id="Gradiente_sem_nome_17-10" x1="42.22" y1="32.47" x2="49.21" y2="32.47" xlink:href="#Gradiente_sem_nome_17"/></defs><title>Ativo 2</title><g id="Camada_2" data-name="Camada 2"><g id="Layer_1" data-name="Layer 1"><path class="cls-1" d="M16.51,15.81c-6.26,1.71-13.72,9.42-8,14.89,2.91,2.78,5.42.68,8.46-.4,3.73-1.32,5.63,1.39,9.25,1.2,2.41-.13,4.64-.95,5.77-3.23,3.26-6.6-7.4-12.37-12.62-12.78A8.61,8.61,0,0,0,16.51,15.81Z"/><path class="cls-2" d="M1.58,18a3.7,3.7,0,0,1-.8-4.37C2.15,11.3,4.91,12.34,6.3,14A4.71,4.71,0,0,1,7.54,16.7,2.34,2.34,0,0,1,6,19.07S2.74,19.14,1.58,18Z"/><path class="cls-3" d="M7,8.91a7.08,7.08,0,0,1,.42-4,2.94,2.94,0,0,1,3.32-1.68A4,4,0,0,1,12.89,5.9a20.19,20.19,0,0,1,1,3.42,5.85,5.85,0,0,1-.24,3.77C11.12,18,7.29,11.48,7,8.91Z"/><path class="cls-4" d="M20.15,11.27a8.79,8.79,0,0,1-2.36-6.74,5,5,0,0,1,1.6-3.47c4.34-3.47,6.81,7.26,4.45,9.87C22.8,12.07,20.15,11.27,20.15,11.27Z"/><path class="cls-5" d="M27.92,14.43c-1.24-2-.33-5.66,1.16-7.28A3.09,3.09,0,0,1,31.56,6c1.32.14,2.16,1.5,2.53,2.78.79,2.65.12,6.82-3.42,6.94A2.88,2.88,0,0,1,27.92,14.43Z"/><path class="cls-6" d="M60.48,40.39c5.63,1.84,12.05,9,6.51,13.45-2.82,2.27-5,.3-7.72-.82-3.34-1.36-5.23.9-8.53.53-2.2-.25-4.2-1.09-5.11-3.15C43,44.45,53.07,40,57.87,39.94A8.1,8.1,0,0,1,60.48,40.39Z"/><path class="cls-7" d="M70,43.12a5.28,5.28,0,0,0,4.54-.92,3.68,3.68,0,0,0,1.06-4.31c-1.22-2.45-4-1.58-5.52,0a4.67,4.67,0,0,0-1.41,2.63C68.52,41.51,70,43.12,70,43.12Z"/><path class="cls-8" d="M70.21,30.2a6.09,6.09,0,0,0-.23-4,3.64,3.64,0,0,0-3.78-1.91,4.22,4.22,0,0,0-2.69,2.49,17.94,17.94,0,0,0-1.33,3.33,5.11,5.11,0,0,0,0,3.79C64.83,39,69.71,32.74,70.21,30.2Z"/><path class="cls-9" d="M58.36,33.25A8,8,0,0,0,60,26.15,4.69,4.69,0,0,0,57.56,23c-5.58-2.6-6.67,8.47-3.51,10.59C55.43,34.55,58.36,33.25,58.36,33.25Z"/><path class="cls-10" d="M48.46,36.23c1.37-1.88.69-5.62-.7-7.33a3.11,3.11,0,0,0-2.4-1.32C44,27.64,43.11,29,42.65,30.2c-.94,2.6-.53,6.8,3,7.14A2.89,2.89,0,0,0,48.46,36.23Z"/></g></g></svg>