<svg xmlns="http://www.w3.org/2000/svg" xmlns:xlink="http://www.w3.org/1999/xlink" viewBox="0 0 75.49 54.51"><defs><style>.cls-1{fill:url(#Gradiente_sem_nome_17);}.cls-2{fill:url(#Gradiente_sem_nome_17-2);}.cls-3{fill:url(#Gradiente_sem_nome_17-3);}.cls-4{fill:url(#Gradiente_sem_nome_17-4);}.cls-5{fill:url(#Gradiente_sem_nome_17-5);}.cls-6{fill:url(#Gradiente_sem_nome_17-6);}.cls-7{fill:url(#Gradiente_sem_nome_17-7);}.cls-8{fill:url(#Gradiente_sem_nome_17-8);}.cls-9{fill:url(#Gradiente_sem_nome_17-9);}.cls-10{fill:url(#Gradiente_sem_nome_17-10);}</style><linearGradient id="Gradiente_sem_nome_17" x1="6.09" y1="23.4" x2="32.24" y2="23.4" gradientUnits="userSpaceOnUse"><stop offset="0" stop-color="#8960e9"/><stop offset="1" stop-color="#fa58a1"/></linearGradient><linearGradient id="Gradiente_sem_nome_17-2" x1="0" y1="15.3" x2="7.17" y2="15.3" xlink:href="#Gradiente_sem_nome_17"/><linearGradient id="Gradiente_sem_nome_17-3" x1="6.52" y1="8.63" x2="13.67" y2="8.63" xlink:href="#Gradiente_sem_nome_17"/><linearGradient id="Gradiente_sem_nome_17-4" x1="17.38" y1="5.58" x2="24.38" y2="5.58" xlink:href="#Gradiente_sem_nome_17"/><linearGradient id="Gradiente_sem_nome_17-5" x1="26.96" y1="10.46" x2="34.01" y2="10.46" xlink:href="#Gradiente_sem_nome_17"/><linearGradient id="Gradiente_sem_nome_17-6" x1="44.83" y1="47.04" x2="68.74" y2="47.04" xlink:href="#Gradiente_sem_nome_17"/><linearGradient id="Gradiente_sem_nome_17-7" x1="68.24" y1="39.44" x2="75.49" y2="39.44" xlink:href="#Gradiente_sem_nome_17"/><linearGradient id="Gradiente_sem_nome_17-8" x1="61.46" y1="29.65" x2="70.06" y2="29.65" xlink:href="#Gradiente_sem_nome_17"/><linearGradient id="Gradiente_sem_nome_17-9" x1="51.93" y1="27.93" x2="59.86" y2="27.93" xlink:href="#Gradiente_sem_nome_17"/><linearGradient id="Gradiente_sem_nome_17-10" x1="41.84" y1="32.09" x2="48.83" y2="32.09" xlink:href="#Gradiente_sem_nome_17"/></defs><title>Ativo 1</title><g id="Camada_2" data-name="Camada 2"><g id="Layer_1" data-name="Layer 1"><path class="cls-1" d="M16.13,15.44c-6.25,1.71-13.72,9.41-8,14.88,2.92,2.78,5.42.68,8.46-.4,3.73-1.32,5.63,1.4,9.26,1.21,2.41-.13,4.64-.95,5.77-3.24,3.26-6.6-7.41-12.36-12.63-12.78A8.4,8.4,0,0,0,16.13,15.44Z"/><path class="cls-2" d="M1.21,17.67a3.69,3.69,0,0,1-.8-4.38c1.37-2.36,4.12-1.32,5.51.32a4.67,4.67,0,0,1,1.24,2.72,2.31,2.31,0,0,1-1.51,2.36S2.37,18.76,1.21,17.67Z"/><path class="cls-3" d="M6.62,8.53a7,7,0,0,1,.41-4,3,3,0,0,1,3.32-1.68,4.06,4.06,0,0,1,2.17,2.65,20.34,20.34,0,0,1,1,3.41,6,6,0,0,1-.24,3.78C10.75,17.62,6.92,11.1,6.62,8.53Z"/><path class="cls-4" d="M19.77,10.9a8.79,8.79,0,0,1-2.35-6.75A4.89,4.89,0,0,1,19,.69c4.34-3.48,6.81,7.26,4.44,9.87C22.43,11.7,19.77,10.9,19.77,10.9Z"/><path class="cls-5" d="M27.55,14.05c-1.25-2-.34-5.65,1.15-7.27a3.1,3.1,0,0,1,2.48-1.17c1.32.14,2.16,1.5,2.54,2.77.78,2.66.11,6.82-3.42,7A2.9,2.9,0,0,1,27.55,14.05Z"/><path class="cls-6" d="M60.1,40c5.64,1.85,12.06,9,6.52,13.46-2.82,2.27-5,.29-7.72-.82-3.34-1.37-5.23.9-8.54.53-2.2-.25-4.19-1.09-5.1-3.16-2.63-6,7.44-10.39,12.24-10.45A7.76,7.76,0,0,1,60.1,40Z"/><path class="cls-7" d="M69.57,42.75a5.34,5.34,0,0,0,4.54-.92,3.71,3.71,0,0,0,1.07-4.32c-1.22-2.44-4-1.57-5.52,0a4.62,4.62,0,0,0-1.41,2.62C68.14,41.13,69.57,42.75,69.57,42.75Z"/><path class="cls-8" d="M69.84,29.82a6.16,6.16,0,0,0-.24-4,3.63,3.63,0,0,0-3.78-1.91,4.29,4.29,0,0,0-2.69,2.49,18.46,18.46,0,0,0-1.33,3.34,5.14,5.14,0,0,0,.05,3.78C64.46,38.59,69.33,32.37,69.84,29.82Z"/><path class="cls-9" d="M58,32.88a8.06,8.06,0,0,0,1.61-7.1,4.66,4.66,0,0,0-2.42-3.12c-5.58-2.59-6.66,8.48-3.5,10.59C55.06,34.18,58,32.88,58,32.88Z"/><path class="cls-10" d="M48.09,35.86c1.36-1.88.68-5.63-.71-7.33A3.05,3.05,0,0,0,45,27.21c-1.33.05-2.25,1.36-2.7,2.61-1,2.6-.53,6.8,3,7.14A2.91,2.91,0,0,0,48.09,35.86Z"/></g></g></svg>